<mxfile host="app.diagrams.net" agent="Mozilla/5.0 (Windows NT 10.0; Win64; x64) AppleWebKit/537.36 (KHTML, like Gecko) Chrome/130.0.0.0 Safari/537.36 Edg/130.0.0.0" version="24.8.4">
  <diagram name="第 1 页" id="OFDsfha0-TQhvNimmKN8">
    <mxGraphModel dx="569" dy="329" grid="1" gridSize="10" guides="1" tooltips="1" connect="1" arrows="1" fold="1" page="1" pageScale="1" pageWidth="827" pageHeight="1169" math="0" shadow="0">
      <root>
        <mxCell id="0" />
        <mxCell id="1" parent="0" />
        <mxCell id="PX57BOE4D3dVIBUaiDl3-1" value="用户" style="rounded=0;whiteSpace=wrap;html=1;" vertex="1" parent="1">
          <mxGeometry x="320" y="80" width="200" height="40" as="geometry" />
        </mxCell>
        <mxCell id="PX57BOE4D3dVIBUaiDl3-2" value="前端" style="rounded=0;whiteSpace=wrap;html=1;" vertex="1" parent="1">
          <mxGeometry x="320" y="160" width="200" height="40" as="geometry" />
        </mxCell>
        <mxCell id="PX57BOE4D3dVIBUaiDl3-3" value="FB" style="rounded=0;whiteSpace=wrap;html=1;" vertex="1" parent="1">
          <mxGeometry x="320" y="240" width="200" height="40" as="geometry" />
        </mxCell>
        <mxCell id="PX57BOE4D3dVIBUaiDl3-4" value="4diac" style="rounded=0;whiteSpace=wrap;html=1;" vertex="1" parent="1">
          <mxGeometry x="320" y="320" width="200" height="40" as="geometry" />
        </mxCell>
        <mxCell id="PX57BOE4D3dVIBUaiDl3-8" value="" style="endArrow=classic;html=1;rounded=0;" edge="1" parent="1">
          <mxGeometry width="50" height="50" relative="1" as="geometry">
            <mxPoint x="400" y="160" as="sourcePoint" />
            <mxPoint x="400" y="120" as="targetPoint" />
          </mxGeometry>
        </mxCell>
        <mxCell id="PX57BOE4D3dVIBUaiDl3-9" value="" style="endArrow=classic;html=1;rounded=0;" edge="1" parent="1">
          <mxGeometry width="50" height="50" relative="1" as="geometry">
            <mxPoint x="400" y="240" as="sourcePoint" />
            <mxPoint x="400" y="200" as="targetPoint" />
          </mxGeometry>
        </mxCell>
        <mxCell id="PX57BOE4D3dVIBUaiDl3-10" value="" style="endArrow=classic;html=1;rounded=0;" edge="1" parent="1">
          <mxGeometry width="50" height="50" relative="1" as="geometry">
            <mxPoint x="400" y="320" as="sourcePoint" />
            <mxPoint x="400" y="280" as="targetPoint" />
          </mxGeometry>
        </mxCell>
        <mxCell id="PX57BOE4D3dVIBUaiDl3-11" value="" style="endArrow=classic;html=1;rounded=0;entryX=0.599;entryY=0.001;entryDx=0;entryDy=0;entryPerimeter=0;exitX=0.601;exitY=1.001;exitDx=0;exitDy=0;exitPerimeter=0;" edge="1" parent="1" source="PX57BOE4D3dVIBUaiDl3-1" target="PX57BOE4D3dVIBUaiDl3-2">
          <mxGeometry width="50" height="50" relative="1" as="geometry">
            <mxPoint x="410" y="170" as="sourcePoint" />
            <mxPoint x="410" y="130" as="targetPoint" />
          </mxGeometry>
        </mxCell>
        <mxCell id="PX57BOE4D3dVIBUaiDl3-12" value="" style="endArrow=classic;html=1;rounded=0;entryX=0.599;entryY=0.001;entryDx=0;entryDy=0;entryPerimeter=0;exitX=0.601;exitY=1.001;exitDx=0;exitDy=0;exitPerimeter=0;" edge="1" parent="1">
          <mxGeometry width="50" height="50" relative="1" as="geometry">
            <mxPoint x="440" y="200" as="sourcePoint" />
            <mxPoint x="440" y="240" as="targetPoint" />
          </mxGeometry>
        </mxCell>
        <mxCell id="PX57BOE4D3dVIBUaiDl3-13" value="" style="endArrow=classic;html=1;rounded=0;entryX=0.599;entryY=0.001;entryDx=0;entryDy=0;entryPerimeter=0;exitX=0.601;exitY=1.001;exitDx=0;exitDy=0;exitPerimeter=0;" edge="1" parent="1">
          <mxGeometry width="50" height="50" relative="1" as="geometry">
            <mxPoint x="440" y="280" as="sourcePoint" />
            <mxPoint x="440" y="320" as="targetPoint" />
          </mxGeometry>
        </mxCell>
        <mxCell id="PX57BOE4D3dVIBUaiDl3-15" value="硬件" style="rounded=0;whiteSpace=wrap;html=1;" vertex="1" parent="1">
          <mxGeometry x="320" y="400" width="200" height="40" as="geometry" />
        </mxCell>
        <mxCell id="PX57BOE4D3dVIBUaiDl3-16" value="" style="endArrow=classic;html=1;rounded=0;" edge="1" parent="1">
          <mxGeometry width="50" height="50" relative="1" as="geometry">
            <mxPoint x="400" y="400" as="sourcePoint" />
            <mxPoint x="400" y="360" as="targetPoint" />
          </mxGeometry>
        </mxCell>
        <mxCell id="PX57BOE4D3dVIBUaiDl3-17" value="" style="endArrow=classic;html=1;rounded=0;entryX=0.599;entryY=0.001;entryDx=0;entryDy=0;entryPerimeter=0;exitX=0.601;exitY=1.001;exitDx=0;exitDy=0;exitPerimeter=0;" edge="1" parent="1">
          <mxGeometry width="50" height="50" relative="1" as="geometry">
            <mxPoint x="440" y="360" as="sourcePoint" />
            <mxPoint x="440" y="400" as="targetPoint" />
          </mxGeometry>
        </mxCell>
      </root>
    </mxGraphModel>
  </diagram>
</mxfile>
